<svg xmlns="http://www.w3.org/2000/svg" width="257" height="28" viewBox="0 0 257 28">
<path id="JOHNNY_DEV" data-name="JOHNNY DEV" class="cls-1" d="M15.4,25.128q2.3-2.3,2.3-6.984V1.8H3.052V6.48h8.856V18.468q0,4.177-3.564,4.176a4.688,4.688,0,0,1-2.484-.7,8.174,8.174,0,0,1-2.2-2.07L0.424,23.76a8.972,8.972,0,0,0,3.51,2.718,11.421,11.421,0,0,0,4.7.954Q13.1,27.432,15.4,25.128ZM41.518,26.46a13.307,13.307,0,0,0,4.356-2.718,12.467,12.467,0,0,0,2.9-4.14,12.874,12.874,0,0,0,1.044-5.2,12.562,12.562,0,0,0-3.942-9.324A13.168,13.168,0,0,0,41.518,2.34a15.939,15.939,0,0,0-10.962,0,13.316,13.316,0,0,0-4.392,2.736,12.36,12.36,0,0,0-2.9,4.14A12.937,12.937,0,0,0,22.24,14.4a12.937,12.937,0,0,0,1.026,5.184,12.475,12.475,0,0,0,2.88,4.14,13.07,13.07,0,0,0,4.392,2.736,15.324,15.324,0,0,0,5.526.972A14.938,14.938,0,0,0,41.518,26.46ZM32.9,21.888a7.224,7.224,0,0,1-2.5-1.656,7.655,7.655,0,0,1-1.656-2.574,8.738,8.738,0,0,1-.594-3.258,8.7,8.7,0,0,1,.594-3.276,7.565,7.565,0,0,1,1.674-2.556,7.466,7.466,0,0,1,2.5-1.656,8.224,8.224,0,0,1,3.114-.576,8.366,8.366,0,0,1,3.132.576,7.244,7.244,0,0,1,2.5,1.656,7.71,7.71,0,0,1,1.656,2.556,8.7,8.7,0,0,1,.594,3.276,8.7,8.7,0,0,1-.594,3.276,7.559,7.559,0,0,1-1.674,2.556,7.463,7.463,0,0,1-2.5,1.656,8.217,8.217,0,0,1-3.114.576A8.35,8.35,0,0,1,32.9,21.888ZM60.4,27H54.568V1.8H60.4l0.006,9.936H71.85l0-9.936H77.68V27H71.848l0-10.332H60.406Zm29.376,0V11.7L102.34,27h4.788V1.8h-5.76V17.092L88.84,1.8H84.016V27h5.76Zm29.448,0V11.7L131.788,27h4.788V1.8h-5.76V17.094L118.288,1.8h-4.824V27h5.76Zm35.784,0V18.022L164.8,1.8h-5.724L152.335,13,145.612,1.8H139.42l9.756,16.235V27h5.832Zm34.6,0a15.976,15.976,0,0,0,7.236-1.566,11.91,11.91,0,0,0,4.9-4.392A12.282,12.282,0,0,0,203.5,14.4a12.26,12.26,0,0,0-1.764-6.66,11.955,11.955,0,0,0-4.9-4.374A15.976,15.976,0,0,0,189.6,1.8H178.156V27H189.6ZM183.988,6.588h5.328a9.447,9.447,0,0,1,4.374.954,6.956,6.956,0,0,1,2.88,2.7A8.065,8.065,0,0,1,197.6,14.4a8.087,8.087,0,0,1-1.026,4.14,6.915,6.915,0,0,1-2.88,2.718,9.44,9.44,0,0,1-4.374.954h-5.328V6.588Zm30.06,15.732h13.716V27H208.252V1.8H227.3V6.48H214.048l0,5.472h11.695v4.536H214.053ZM246.088,27L257,1.8h-5.8l-7.776,18.008L235.756,1.8h-6.3L240.328,27h5.76Z"/>
</svg>
