<svg xmlns="http://www.w3.org/2000/svg" fill="none" viewBox="0 0 135 38"><rect width="44" height="20" x="91" fill="#F5DA55" rx="2"/><path fill="#fff" d="M5.04 18.02a5.16 5.16 0 0 1-3.68-1.28A4.8 4.8 0 0 1 0 13.09v-1.32h2.38v1.32c0 .82.22 1.48.66 1.98.45.48 1.1.72 1.95.72.83 0 1.43-.24 1.83-.72.4-.49.6-1.15.6-1.98V4.46h-2.7V2.31h6.78v2.15H9.79v8.63c0 1.6-.42 2.82-1.25 3.67a4.7 4.7 0 0 1-3.5 1.26Zm14.67 0c-1.9 0-3.4-.53-4.5-1.59-1.12-1.07-1.68-2.6-1.68-4.62v-3.6c0-2.02.56-3.55 1.67-4.6A6.24 6.24 0 0 1 19.71 2c1.9 0 3.4.54 4.51 1.6 1.13 1.06 1.7 2.6 1.7 4.6v3.61c0 2.01-.57 3.55-1.7 4.62a6.29 6.29 0 0 1-4.5 1.59Zm0-2.14c1.22 0 2.16-.35 2.82-1.05.66-.72.99-1.7.99-2.93V8.12a4 4 0 0 0-1-2.9c-.65-.73-1.6-1.09-2.8-1.09-1.2 0-2.13.36-2.8 1.08a4.02 4.02 0 0 0-1.02 2.9v3.79c0 1.23.34 2.2 1.02 2.93.67.7 1.6 1.05 2.8 1.05Zm9.24 1.83V2.3h2.37v6.6h6.47V2.3h2.38v15.4h-2.38v-6.65h-6.47v6.65h-2.37Zm14.65 0V2.3h4.58l4.18 13.81h.35V2.31h2.36v15.4h-4.58L46.31 3.87h-.35v13.84H43.6Zm14.9 0V2.3h4.57l4.18 13.81h.36V2.31h2.35v15.4h-4.58L61.2 3.87h-.35v13.84H58.5Zm18.87 0v-5.59l-5.34-9.81h2.68l3.7 6.97h.33l3.7-6.97h2.68l-5.35 9.81v5.59h-2.4Z"/><path fill="#fff" d="M93.12 17.7v-2.1h2.07V4.42h-2.07V2.31h6.16c2.05 0 3.62.52 4.7 1.56 1.1 1.04 1.66 2.61 1.66 4.7v2.89c0 2.1-.55 3.67-1.65 4.7-1.09 1.03-2.66 1.55-4.71 1.55h-6.16Zm4.46-2.15h1.72c1.34 0 2.33-.34 2.97-1.01.65-.67.97-1.68.97-3.01V8.49c0-1.35-.32-2.35-.97-3.01-.64-.66-1.63-1-2.97-1h-1.72v11.07Zm10.96 2.16V2.3h9.7v2.15h-7.32V8.9h6.7v2.15h-6.7v4.51h7.43v2.16h-9.8Zm15.66 0-4.3-15.4h2.47l3.74 13.9h.29l3.71-13.9h2.47l-4.27 15.4h-4.11Z"/><path fill="#fff" d="M.96 34.02v-8.4h5.08v.9H1.97v2.83H5.7v.91H1.97v3.76H.96Zm6.72 0v-8.4h3.4c.52 0 .97.09 1.36.27a2.06 2.06 0 0 1 1.27 1.96v.13a2 2 0 0 1-.39 1.3c-.26.33-.58.54-.94.66v.16a1 1 0 0 1 .71.3c.2.17.29.44.29.8v2.82h-1v-2.7c0-.24-.06-.43-.2-.56-.13-.12-.32-.19-.59-.19H8.7v3.45H7.68Zm1-4.36h2.3c.55 0 .98-.13 1.27-.4.3-.27.46-.64.46-1.12v-.09c0-.48-.15-.85-.45-1.11-.3-.28-.72-.41-1.28-.41h-2.3v3.13Zm9.86 4.52c-1 0-1.8-.28-2.4-.86-.6-.58-.89-1.43-.89-2.54v-1.92c0-1.12.3-1.96.89-2.54a3.3 3.3 0 0 1 2.4-.87c1 0 1.8.29 2.4.87.6.58.9 1.42.9 2.54v1.92c0 1.1-.3 1.96-.9 2.54-.6.58-1.4.86-2.4.86Zm0-.9c.73 0 1.3-.21 1.7-.64.4-.44.6-1.05.6-1.83v-1.99c0-.78-.2-1.38-.6-1.81-.4-.44-.97-.66-1.7-.66-.72 0-1.28.22-1.68.66-.4.43-.6 1.03-.6 1.81v2c0 .77.2 1.38.6 1.82.4.43.96.64 1.68.64Zm5.22.74v-8.4h1.95l2.93 7.76h.16v-7.76h1v8.4h-1.96l-2.92-7.78h-.17v7.78h-1Zm10.27 0v-7.5h-2.7v-.9h6.4v.9h-2.7v7.5h-1Zm5.23 0v-8.4h5.17v.9h-4.16v2.82h3.83v.9h-3.83v2.86h4.22v.92h-5.23Zm7 0v-8.4h1.96l2.93 7.76h.15v-7.76h1v8.4h-1.96l-2.91-7.78h-.17v7.78h-1Zm7.82 0v-.9h1.17v-6.6h-1.17v-.9h3.27c1.1 0 1.96.28 2.56.84.6.56.91 1.42.91 2.58v1.56c0 1.16-.3 2.03-.91 2.59-.6.55-1.45.83-2.56.83h-3.27Zm2.18-.92h1.1c.8 0 1.42-.2 1.84-.6.42-.4.62-1.02.62-1.86V29c0-.86-.2-1.48-.62-1.87-.42-.4-1.03-.59-1.85-.59h-1.09v6.56Zm9.34.92v-.9h1.17v-6.6H65.6v-.9h3.27c1.1 0 1.96.28 2.56.84.6.56.9 1.42.9 2.58v1.56c0 1.16-.3 2.03-.9 2.59-.6.55-1.45.83-2.56.83H65.6Zm2.18-.92h1.1c.8 0 1.42-.2 1.84-.6.42-.4.62-1.02.62-1.86V29c0-.86-.2-1.48-.62-1.87-.42-.4-1.03-.59-1.85-.59h-1.1v6.56Zm6.4.92v-8.4h5.18v.9H75.2v2.82h3.82v.9H75.2v2.86h4.22v.92h-5.23Zm8.88 0-2.53-8.4h1.04l2.3 7.78h.15l2.3-7.78h1.04l-2.53 8.4h-1.77Zm5.8 0v-8.4h5.17v.9h-4.16v2.82h3.83v.9h-3.83v2.86h4.22v.92h-5.23Zm7 0v-8.4h1v7.48h4.26v.92h-5.26Zm9.6.16c-1 0-1.8-.28-2.4-.86-.59-.58-.88-1.43-.88-2.54v-1.92c0-1.12.3-1.96.89-2.54a3.3 3.3 0 0 1 2.4-.87c1 0 1.8.29 2.4.87.6.58.9 1.42.9 2.54v1.92c0 1.1-.3 1.96-.9 2.54-.6.58-1.4.86-2.4.86Zm0-.9c.73 0 1.3-.21 1.7-.64.4-.44.6-1.05.6-1.83v-1.99c0-.78-.2-1.38-.6-1.81-.4-.44-.97-.66-1.7-.66-.71 0-1.27.22-1.67.66-.4.43-.6 1.03-.6 1.81v2c0 .77.2 1.38.6 1.82.4.43.96.64 1.68.64Zm5.23.74v-8.4h3.21c.5 0 .95.1 1.34.3.4.19.72.46.95.82.23.36.35.8.35 1.31v.16a2.27 2.27 0 0 1-1.3 2.14c-.4.19-.85.28-1.34.28h-2.2v3.39h-1.02Zm1-4.3h2.1c.54 0 .96-.13 1.27-.4.32-.27.47-.65.47-1.14v-.12c0-.48-.15-.86-.47-1.12-.3-.28-.72-.41-1.27-.41h-2.1v3.19Zm6.44 4.3v-8.4h5.17v.9h-4.16v2.82h3.83v.9h-3.83v2.86h4.22v.92h-5.23Zm7 0v-8.4h3.4c.52 0 .98.09 1.37.27a2.06 2.06 0 0 1 1.27 1.96v.13a2 2 0 0 1-.4 1.3c-.26.33-.57.54-.93.66v.16a1 1 0 0 1 .7.3c.2.17.3.44.3.8v2.82h-1v-2.7a.77.77 0 0 0-.2-.56c-.13-.12-.33-.19-.6-.19h-2.9v3.45h-1Zm1.01-4.36h2.3c.55 0 .97-.13 1.27-.4.3-.27.45-.64.45-1.12v-.09c0-.48-.15-.85-.44-1.11-.3-.28-.73-.41-1.29-.41h-2.29v3.13Z"/></svg>
